# xmcd
#
# Track frame offsets:
#	150
#	15205
#	27420
#	41015
#	55795
#	76090
#	85135
#	96768
#	107660
#	120813
#	129973
#	145123
#	161778
#	174990
#	184573
#	202085
#	212875
#	231115
#
# Disc length: 3253 seconds
#
# Revision: 2
# Processed by: cddbd v1.5.2PL0 Copyright (c) Steve Scherf et al.
# Submitted via: audiograbber 1.83.01
#
DISCID=dc0cb312
DTITLE=PJ Murrihy and Seamus Shannon - My Native Sod
DYEAR=1900
DGENRE=
TTITLE0=Don't Give Up Till It's Over
TTITLE1=Coridinio
TTITLE2=I'll Remember You Love In My Prayers
TTITLE3=That Dusty Road
TTITLE4=A Winter's Tear
TTITLE5=Charlie's Reel - The Mountain Lassies
TTITLE6=Back Home To Kerry
TTITLE7=Auburn Waltz
TTITLE8=Never Grow Old
TTITLE9=John Breslin's - The Kerry Jig
TTITLE10=You Never Learned To Dance
TTITLE11=Man Of The Road
TTITLE12=The Connemara Bus
TTITLE13=Eddie Kelly's - Shannon's Jig
TTITLE14=Wild Flower Of The Laune
TTITLE15=Tamlin Reels
TTITLE16=Roads Of Kildare
TTITLE17=Highland Selection
EXTD=
EXTT0=
EXTT1=
EXTT2=
EXTT3=
EXTT4=
EXTT5=
EXTT6=
EXTT7=
EXTT8=
EXTT9=
EXTT10=
EXTT11=
EXTT12=
EXTT13=
EXTT14=
EXTT15=
EXTT16=
EXTT17=
PLAYORDER=
